<?xml version="1.0" encoding="utf-8" standalone="no"?>
<!DOCTYPE svg PUBLIC "-//W3C//DTD SVG 1.1//EN"
  "http://www.w3.org/Graphics/SVG/1.1/DTD/svg11.dtd">
<!-- Created with matplotlib (https://matplotlib.org/) -->
<svg height="443.52pt" version="1.1" viewBox="0 0 563.04 443.52" width="563.04pt" xmlns="http://www.w3.org/2000/svg" xmlns:xlink="http://www.w3.org/1999/xlink">
 <defs>
  <style type="text/css">
*{stroke-linecap:butt;stroke-linejoin:round;}
  </style>
 </defs>
 <g id="figure_1">
  <g id="patch_1">
   <path d="M 0 443.52 
L 563.04 443.52 
L 563.04 0 
L 0 0 
z
" style="fill:#ffffff;"/>
  </g>
  <g id="axes_1">
   <g id="patch_2">
    <path d="M 70.38 394.7328 
L 506.736 394.7328 
L 506.736 53.2224 
L 70.38 53.2224 
z
" style="fill:#ffffff;"/>
   </g>
   <g id="matplotlib.axis_1">
    <g id="xtick_1">
     <g id="line2d_1">
      <defs>
       <path d="M 0 0 
L 0 3.5 
" id="m294dc5ca98" style="stroke:#000000;stroke-width:0.8;"/>
      </defs>
      <g>
       <use style="stroke:#000000;stroke-width:0.8;" x="86.207421" xlink:href="#m294dc5ca98" y="394.7328"/>
      </g>
     </g>
     <g id="text_1">
      <!-- 0 -->
      <defs>
       <path d="M 31.78125 66.40625 
Q 24.171875 66.40625 20.328125 58.90625 
Q 16.5 51.421875 16.5 36.375 
Q 16.5 21.390625 20.328125 13.890625 
Q 24.171875 6.390625 31.78125 6.390625 
Q 39.453125 6.390625 43.28125 13.890625 
Q 47.125 21.390625 47.125 36.375 
Q 47.125 51.421875 43.28125 58.90625 
Q 39.453125 66.40625 31.78125 66.40625 
z
M 31.78125 74.21875 
Q 44.046875 74.21875 50.515625 64.515625 
Q 56.984375 54.828125 56.984375 36.375 
Q 56.984375 17.96875 50.515625 8.265625 
Q 44.046875 -1.421875 31.78125 -1.421875 
Q 19.53125 -1.421875 13.0625 8.265625 
Q 6.59375 17.96875 6.59375 36.375 
Q 6.59375 54.828125 13.0625 64.515625 
Q 19.53125 74.21875 31.78125 74.21875 
z
" id="DejaVuSans-48"/>
      </defs>
      <g transform="translate(83.026171 409.331237)scale(0.1 -0.1)">
       <use xlink:href="#DejaVuSans-48"/>
      </g>
     </g>
    </g>
    <g id="xtick_2">
     <g id="line2d_2">
      <g>
       <use style="stroke:#000000;stroke-width:0.8;" x="166.346264" xlink:href="#m294dc5ca98" y="394.7328"/>
      </g>
     </g>
     <g id="text_2">
      <!-- 200 -->
      <defs>
       <path d="M 19.1875 8.296875 
L 53.609375 8.296875 
L 53.609375 0 
L 7.328125 0 
L 7.328125 8.296875 
Q 12.9375 14.109375 22.625 23.890625 
Q 32.328125 33.6875 34.8125 36.53125 
Q 39.546875 41.84375 41.421875 45.53125 
Q 43.3125 49.21875 43.3125 52.78125 
Q 43.3125 58.59375 39.234375 62.25 
Q 35.15625 65.921875 28.609375 65.921875 
Q 23.96875 65.921875 18.8125 64.3125 
Q 13.671875 62.703125 7.8125 59.421875 
L 7.8125 69.390625 
Q 13.765625 71.78125 18.9375 73 
Q 24.125 74.21875 28.421875 74.21875 
Q 39.75 74.21875 46.484375 68.546875 
Q 53.21875 62.890625 53.21875 53.421875 
Q 53.21875 48.921875 51.53125 44.890625 
Q 49.859375 40.875 45.40625 35.40625 
Q 44.1875 33.984375 37.640625 27.21875 
Q 31.109375 20.453125 19.1875 8.296875 
z
" id="DejaVuSans-50"/>
      </defs>
      <g transform="translate(156.802514 409.331237)scale(0.1 -0.1)">
       <use xlink:href="#DejaVuSans-50"/>
       <use x="63.623047" xlink:href="#DejaVuSans-48"/>
       <use x="127.246094" xlink:href="#DejaVuSans-48"/>
      </g>
     </g>
    </g>
    <g id="xtick_3">
     <g id="line2d_3">
      <g>
       <use style="stroke:#000000;stroke-width:0.8;" x="246.485107" xlink:href="#m294dc5ca98" y="394.7328"/>
      </g>
     </g>
     <g id="text_3">
      <!-- 400 -->
      <defs>
       <path d="M 37.796875 64.3125 
L 12.890625 25.390625 
L 37.796875 25.390625 
z
M 35.203125 72.90625 
L 47.609375 72.90625 
L 47.609375 25.390625 
L 58.015625 25.390625 
L 58.015625 17.1875 
L 47.609375 17.1875 
L 47.609375 0 
L 37.796875 0 
L 37.796875 17.1875 
L 4.890625 17.1875 
L 4.890625 26.703125 
z
" id="DejaVuSans-52"/>
      </defs>
      <g transform="translate(236.941357 409.331237)scale(0.1 -0.1)">
       <use xlink:href="#DejaVuSans-52"/>
       <use x="63.623047" xlink:href="#DejaVuSans-48"/>
       <use x="127.246094" xlink:href="#DejaVuSans-48"/>
      </g>
     </g>
    </g>
    <g id="xtick_4">
     <g id="line2d_4">
      <g>
       <use style="stroke:#000000;stroke-width:0.8;" x="326.62395" xlink:href="#m294dc5ca98" y="394.7328"/>
      </g>
     </g>
     <g id="text_4">
      <!-- 600 -->
      <defs>
       <path d="M 33.015625 40.375 
Q 26.375 40.375 22.484375 35.828125 
Q 18.609375 31.296875 18.609375 23.390625 
Q 18.609375 15.53125 22.484375 10.953125 
Q 26.375 6.390625 33.015625 6.390625 
Q 39.65625 6.390625 43.53125 10.953125 
Q 47.40625 15.53125 47.40625 23.390625 
Q 47.40625 31.296875 43.53125 35.828125 
Q 39.65625 40.375 33.015625 40.375 
z
M 52.59375 71.296875 
L 52.59375 62.3125 
Q 48.875 64.0625 45.09375 64.984375 
Q 41.3125 65.921875 37.59375 65.921875 
Q 27.828125 65.921875 22.671875 59.328125 
Q 17.53125 52.734375 16.796875 39.40625 
Q 19.671875 43.65625 24.015625 45.921875 
Q 28.375 48.1875 33.59375 48.1875 
Q 44.578125 48.1875 50.953125 41.515625 
Q 57.328125 34.859375 57.328125 23.390625 
Q 57.328125 12.15625 50.6875 5.359375 
Q 44.046875 -1.421875 33.015625 -1.421875 
Q 20.359375 -1.421875 13.671875 8.265625 
Q 6.984375 17.96875 6.984375 36.375 
Q 6.984375 53.65625 15.1875 63.9375 
Q 23.390625 74.21875 37.203125 74.21875 
Q 40.921875 74.21875 44.703125 73.484375 
Q 48.484375 72.75 52.59375 71.296875 
z
" id="DejaVuSans-54"/>
      </defs>
      <g transform="translate(317.0802 409.331237)scale(0.1 -0.1)">
       <use xlink:href="#DejaVuSans-54"/>
       <use x="63.623047" xlink:href="#DejaVuSans-48"/>
       <use x="127.246094" xlink:href="#DejaVuSans-48"/>
      </g>
     </g>
    </g>
    <g id="xtick_5">
     <g id="line2d_5">
      <g>
       <use style="stroke:#000000;stroke-width:0.8;" x="406.762793" xlink:href="#m294dc5ca98" y="394.7328"/>
      </g>
     </g>
     <g id="text_5">
      <!-- 800 -->
      <defs>
       <path d="M 31.78125 34.625 
Q 24.75 34.625 20.71875 30.859375 
Q 16.703125 27.09375 16.703125 20.515625 
Q 16.703125 13.921875 20.71875 10.15625 
Q 24.75 6.390625 31.78125 6.390625 
Q 38.8125 6.390625 42.859375 10.171875 
Q 46.921875 13.96875 46.921875 20.515625 
Q 46.921875 27.09375 42.890625 30.859375 
Q 38.875 34.625 31.78125 34.625 
z
M 21.921875 38.8125 
Q 15.578125 40.375 12.03125 44.71875 
Q 8.5 49.078125 8.5 55.328125 
Q 8.5 64.0625 14.71875 69.140625 
Q 20.953125 74.21875 31.78125 74.21875 
Q 42.671875 74.21875 48.875 69.140625 
Q 55.078125 64.0625 55.078125 55.328125 
Q 55.078125 49.078125 51.53125 44.71875 
Q 48 40.375 41.703125 38.8125 
Q 48.828125 37.15625 52.796875 32.3125 
Q 56.78125 27.484375 56.78125 20.515625 
Q 56.78125 9.90625 50.3125 4.234375 
Q 43.84375 -1.421875 31.78125 -1.421875 
Q 19.734375 -1.421875 13.25 4.234375 
Q 6.78125 9.90625 6.78125 20.515625 
Q 6.78125 27.484375 10.78125 32.3125 
Q 14.796875 37.15625 21.921875 38.8125 
z
M 18.3125 54.390625 
Q 18.3125 48.734375 21.84375 45.5625 
Q 25.390625 42.390625 31.78125 42.390625 
Q 38.140625 42.390625 41.71875 45.5625 
Q 45.3125 48.734375 45.3125 54.390625 
Q 45.3125 60.0625 41.71875 63.234375 
Q 38.140625 66.40625 31.78125 66.40625 
Q 25.390625 66.40625 21.84375 63.234375 
Q 18.3125 60.0625 18.3125 54.390625 
z
" id="DejaVuSans-56"/>
      </defs>
      <g transform="translate(397.219043 409.331237)scale(0.1 -0.1)">
       <use xlink:href="#DejaVuSans-56"/>
       <use x="63.623047" xlink:href="#DejaVuSans-48"/>
       <use x="127.246094" xlink:href="#DejaVuSans-48"/>
      </g>
     </g>
    </g>
    <g id="xtick_6">
     <g id="line2d_6">
      <g>
       <use style="stroke:#000000;stroke-width:0.8;" x="486.901636" xlink:href="#m294dc5ca98" y="394.7328"/>
      </g>
     </g>
     <g id="text_6">
      <!-- 1000 -->
      <defs>
       <path d="M 12.40625 8.296875 
L 28.515625 8.296875 
L 28.515625 63.921875 
L 10.984375 60.40625 
L 10.984375 69.390625 
L 28.421875 72.90625 
L 38.28125 72.90625 
L 38.28125 8.296875 
L 54.390625 8.296875 
L 54.390625 0 
L 12.40625 0 
z
" id="DejaVuSans-49"/>
      </defs>
      <g transform="translate(474.176636 409.331237)scale(0.1 -0.1)">
       <use xlink:href="#DejaVuSans-49"/>
       <use x="63.623047" xlink:href="#DejaVuSans-48"/>
       <use x="127.246094" xlink:href="#DejaVuSans-48"/>
       <use x="190.869141" xlink:href="#DejaVuSans-48"/>
      </g>
     </g>
    </g>
    <g id="text_7">
     <!-- Sample size -->
     <defs>
      <path d="M 53.515625 70.515625 
L 53.515625 60.890625 
Q 47.90625 63.578125 42.921875 64.890625 
Q 37.9375 66.21875 33.296875 66.21875 
Q 25.25 66.21875 20.875 63.09375 
Q 16.5 59.96875 16.5 54.203125 
Q 16.5 49.359375 19.40625 46.890625 
Q 22.3125 44.4375 30.421875 42.921875 
L 36.375 41.703125 
Q 47.40625 39.59375 52.65625 34.296875 
Q 57.90625 29 57.90625 20.125 
Q 57.90625 9.515625 50.796875 4.046875 
Q 43.703125 -1.421875 29.984375 -1.421875 
Q 24.8125 -1.421875 18.96875 -0.25 
Q 13.140625 0.921875 6.890625 3.21875 
L 6.890625 13.375 
Q 12.890625 10.015625 18.65625 8.296875 
Q 24.421875 6.59375 29.984375 6.59375 
Q 38.421875 6.59375 43.015625 9.90625 
Q 47.609375 13.234375 47.609375 19.390625 
Q 47.609375 24.75 44.3125 27.78125 
Q 41.015625 30.8125 33.5 32.328125 
L 27.484375 33.5 
Q 16.453125 35.6875 11.515625 40.375 
Q 6.59375 45.0625 6.59375 53.421875 
Q 6.59375 63.09375 13.40625 68.65625 
Q 20.21875 74.21875 32.171875 74.21875 
Q 37.3125 74.21875 42.625 73.28125 
Q 47.953125 72.359375 53.515625 70.515625 
z
" id="DejaVuSans-83"/>
      <path d="M 34.28125 27.484375 
Q 23.390625 27.484375 19.1875 25 
Q 14.984375 22.515625 14.984375 16.5 
Q 14.984375 11.71875 18.140625 8.90625 
Q 21.296875 6.109375 26.703125 6.109375 
Q 34.1875 6.109375 38.703125 11.40625 
Q 43.21875 16.703125 43.21875 25.484375 
L 43.21875 27.484375 
z
M 52.203125 31.203125 
L 52.203125 0 
L 43.21875 0 
L 43.21875 8.296875 
Q 40.140625 3.328125 35.546875 0.953125 
Q 30.953125 -1.421875 24.3125 -1.421875 
Q 15.921875 -1.421875 10.953125 3.296875 
Q 6 8.015625 6 15.921875 
Q 6 25.140625 12.171875 29.828125 
Q 18.359375 34.515625 30.609375 34.515625 
L 43.21875 34.515625 
L 43.21875 35.40625 
Q 43.21875 41.609375 39.140625 45 
Q 35.0625 48.390625 27.6875 48.390625 
Q 23 48.390625 18.546875 47.265625 
Q 14.109375 46.140625 10.015625 43.890625 
L 10.015625 52.203125 
Q 14.9375 54.109375 19.578125 55.046875 
Q 24.21875 56 28.609375 56 
Q 40.484375 56 46.34375 49.84375 
Q 52.203125 43.703125 52.203125 31.203125 
z
" id="DejaVuSans-97"/>
      <path d="M 52 44.1875 
Q 55.375 50.25 60.0625 53.125 
Q 64.75 56 71.09375 56 
Q 79.640625 56 84.28125 50.015625 
Q 88.921875 44.046875 88.921875 33.015625 
L 88.921875 0 
L 79.890625 0 
L 79.890625 32.71875 
Q 79.890625 40.578125 77.09375 44.375 
Q 74.3125 48.1875 68.609375 48.1875 
Q 61.625 48.1875 57.5625 43.546875 
Q 53.515625 38.921875 53.515625 30.90625 
L 53.515625 0 
L 44.484375 0 
L 44.484375 32.71875 
Q 44.484375 40.625 41.703125 44.40625 
Q 38.921875 48.1875 33.109375 48.1875 
Q 26.21875 48.1875 22.15625 43.53125 
Q 18.109375 38.875 18.109375 30.90625 
L 18.109375 0 
L 9.078125 0 
L 9.078125 54.6875 
L 18.109375 54.6875 
L 18.109375 46.1875 
Q 21.1875 51.21875 25.484375 53.609375 
Q 29.78125 56 35.6875 56 
Q 41.65625 56 45.828125 52.96875 
Q 50 49.953125 52 44.1875 
z
" id="DejaVuSans-109"/>
      <path d="M 18.109375 8.203125 
L 18.109375 -20.796875 
L 9.078125 -20.796875 
L 9.078125 54.6875 
L 18.109375 54.6875 
L 18.109375 46.390625 
Q 20.953125 51.265625 25.265625 53.625 
Q 29.59375 56 35.59375 56 
Q 45.5625 56 51.78125 48.09375 
Q 58.015625 40.1875 58.015625 27.296875 
Q 58.015625 14.40625 51.78125 6.484375 
Q 45.5625 -1.421875 35.59375 -1.421875 
Q 29.59375 -1.421875 25.265625 0.953125 
Q 20.953125 3.328125 18.109375 8.203125 
z
M 48.6875 27.296875 
Q 48.6875 37.203125 44.609375 42.84375 
Q 40.53125 48.484375 33.40625 48.484375 
Q 26.265625 48.484375 22.1875 42.84375 
Q 18.109375 37.203125 18.109375 27.296875 
Q 18.109375 17.390625 22.1875 11.75 
Q 26.265625 6.109375 33.40625 6.109375 
Q 40.53125 6.109375 44.609375 11.75 
Q 48.6875 17.390625 48.6875 27.296875 
z
" id="DejaVuSans-112"/>
      <path d="M 9.421875 75.984375 
L 18.40625 75.984375 
L 18.40625 0 
L 9.421875 0 
z
" id="DejaVuSans-108"/>
      <path d="M 56.203125 29.59375 
L 56.203125 25.203125 
L 14.890625 25.203125 
Q 15.484375 15.921875 20.484375 11.0625 
Q 25.484375 6.203125 34.421875 6.203125 
Q 39.59375 6.203125 44.453125 7.46875 
Q 49.3125 8.734375 54.109375 11.28125 
L 54.109375 2.78125 
Q 49.265625 0.734375 44.1875 -0.34375 
Q 39.109375 -1.421875 33.890625 -1.421875 
Q 20.796875 -1.421875 13.15625 6.1875 
Q 5.515625 13.8125 5.515625 26.8125 
Q 5.515625 40.234375 12.765625 48.109375 
Q 20.015625 56 32.328125 56 
Q 43.359375 56 49.78125 48.890625 
Q 56.203125 41.796875 56.203125 29.59375 
z
M 47.21875 32.234375 
Q 47.125 39.59375 43.09375 43.984375 
Q 39.0625 48.390625 32.421875 48.390625 
Q 24.90625 48.390625 20.390625 44.140625 
Q 15.875 39.890625 15.1875 32.171875 
z
" id="DejaVuSans-101"/>
      <path id="DejaVuSans-32"/>
      <path d="M 44.28125 53.078125 
L 44.28125 44.578125 
Q 40.484375 46.53125 36.375 47.5 
Q 32.28125 48.484375 27.875 48.484375 
Q 21.1875 48.484375 17.84375 46.4375 
Q 14.5 44.390625 14.5 40.28125 
Q 14.5 37.15625 16.890625 35.375 
Q 19.28125 33.59375 26.515625 31.984375 
L 29.59375 31.296875 
Q 39.15625 29.25 43.1875 25.515625 
Q 47.21875 21.78125 47.21875 15.09375 
Q 47.21875 7.46875 41.1875 3.015625 
Q 35.15625 -1.421875 24.609375 -1.421875 
Q 20.21875 -1.421875 15.453125 -0.5625 
Q 10.6875 0.296875 5.421875 2 
L 5.421875 11.28125 
Q 10.40625 8.6875 15.234375 7.390625 
Q 20.0625 6.109375 24.8125 6.109375 
Q 31.15625 6.109375 34.5625 8.28125 
Q 37.984375 10.453125 37.984375 14.40625 
Q 37.984375 18.0625 35.515625 20.015625 
Q 33.0625 21.96875 24.703125 23.78125 
L 21.578125 24.515625 
Q 13.234375 26.265625 9.515625 29.90625 
Q 5.8125 33.546875 5.8125 39.890625 
Q 5.8125 47.609375 11.28125 51.796875 
Q 16.75 56 26.8125 56 
Q 31.78125 56 36.171875 55.265625 
Q 40.578125 54.546875 44.28125 53.078125 
z
" id="DejaVuSans-115"/>
      <path d="M 9.421875 54.6875 
L 18.40625 54.6875 
L 18.40625 0 
L 9.421875 0 
z
M 9.421875 75.984375 
L 18.40625 75.984375 
L 18.40625 64.59375 
L 9.421875 64.59375 
z
" id="DejaVuSans-105"/>
      <path d="M 5.515625 54.6875 
L 48.1875 54.6875 
L 48.1875 46.484375 
L 14.40625 7.171875 
L 48.1875 7.171875 
L 48.1875 0 
L 4.296875 0 
L 4.296875 8.203125 
L 38.09375 47.515625 
L 5.515625 47.515625 
z
" id="DejaVuSans-122"/>
     </defs>
     <g transform="translate(258.525969 423.009363)scale(0.1 -0.1)">
      <use xlink:href="#DejaVuSans-83"/>
      <use x="63.476562" xlink:href="#DejaVuSans-97"/>
      <use x="124.755859" xlink:href="#DejaVuSans-109"/>
      <use x="222.167969" xlink:href="#DejaVuSans-112"/>
      <use x="285.644531" xlink:href="#DejaVuSans-108"/>
      <use x="313.427734" xlink:href="#DejaVuSans-101"/>
      <use x="374.951172" xlink:href="#DejaVuSans-32"/>
      <use x="406.738281" xlink:href="#DejaVuSans-115"/>
      <use x="458.837891" xlink:href="#DejaVuSans-105"/>
      <use x="486.621094" xlink:href="#DejaVuSans-122"/>
      <use x="539.111328" xlink:href="#DejaVuSans-101"/>
     </g>
    </g>
   </g>
   <g id="matplotlib.axis_2">
    <g id="ytick_1">
     <g id="line2d_7">
      <defs>
       <path d="M 0 0 
L -3.5 0 
" id="m620d3962c2" style="stroke:#000000;stroke-width:0.8;"/>
      </defs>
      <g>
       <use style="stroke:#000000;stroke-width:0.8;" x="70.38" xlink:href="#m620d3962c2" y="380.156432"/>
      </g>
     </g>
     <g id="text_8">
      <!-- 1.80 -->
      <defs>
       <path d="M 10.6875 12.40625 
L 21 12.40625 
L 21 0 
L 10.6875 0 
z
" id="DejaVuSans-46"/>
      </defs>
      <g transform="translate(41.114375 383.955651)scale(0.1 -0.1)">
       <use xlink:href="#DejaVuSans-49"/>
       <use x="63.623047" xlink:href="#DejaVuSans-46"/>
       <use x="95.410156" xlink:href="#DejaVuSans-56"/>
       <use x="159.033203" xlink:href="#DejaVuSans-48"/>
      </g>
     </g>
    </g>
    <g id="ytick_2">
     <g id="line2d_8">
      <g>
       <use style="stroke:#000000;stroke-width:0.8;" x="70.38" xlink:href="#m620d3962c2" y="305.923553"/>
      </g>
     </g>
     <g id="text_9">
      <!-- 1.85 -->
      <defs>
       <path d="M 10.796875 72.90625 
L 49.515625 72.90625 
L 49.515625 64.59375 
L 19.828125 64.59375 
L 19.828125 46.734375 
Q 21.96875 47.46875 24.109375 47.828125 
Q 26.265625 48.1875 28.421875 48.1875 
Q 40.625 48.1875 47.75 41.5 
Q 54.890625 34.8125 54.890625 23.390625 
Q 54.890625 11.625 47.5625 5.09375 
Q 40.234375 -1.421875 26.90625 -1.421875 
Q 22.3125 -1.421875 17.546875 -0.640625 
Q 12.796875 0.140625 7.71875 1.703125 
L 7.71875 11.625 
Q 12.109375 9.234375 16.796875 8.0625 
Q 21.484375 6.890625 26.703125 6.890625 
Q 35.15625 6.890625 40.078125 11.328125 
Q 45.015625 15.765625 45.015625 23.390625 
Q 45.015625 31 40.078125 35.4375 
Q 35.15625 39.890625 26.703125 39.890625 
Q 22.75 39.890625 18.8125 39.015625 
Q 14.890625 38.140625 10.796875 36.28125 
z
" id="DejaVuSans-53"/>
      </defs>
      <g transform="translate(41.114375 309.722772)scale(0.1 -0.1)">
       <use xlink:href="#DejaVuSans-49"/>
       <use x="63.623047" xlink:href="#DejaVuSans-46"/>
       <use x="95.410156" xlink:href="#DejaVuSans-56"/>
       <use x="159.033203" xlink:href="#DejaVuSans-53"/>
      </g>
     </g>
    </g>
    <g id="ytick_3">
     <g id="line2d_9">
      <g>
       <use style="stroke:#000000;stroke-width:0.8;" x="70.38" xlink:href="#m620d3962c2" y="231.690675"/>
      </g>
     </g>
     <g id="text_10">
      <!-- 1.90 -->
      <defs>
       <path d="M 10.984375 1.515625 
L 10.984375 10.5 
Q 14.703125 8.734375 18.5 7.8125 
Q 22.3125 6.890625 25.984375 6.890625 
Q 35.75 6.890625 40.890625 13.453125 
Q 46.046875 20.015625 46.78125 33.40625 
Q 43.953125 29.203125 39.59375 26.953125 
Q 35.25 24.703125 29.984375 24.703125 
Q 19.046875 24.703125 12.671875 31.3125 
Q 6.296875 37.9375 6.296875 49.421875 
Q 6.296875 60.640625 12.9375 67.421875 
Q 19.578125 74.21875 30.609375 74.21875 
Q 43.265625 74.21875 49.921875 64.515625 
Q 56.59375 54.828125 56.59375 36.375 
Q 56.59375 19.140625 48.40625 8.859375 
Q 40.234375 -1.421875 26.421875 -1.421875 
Q 22.703125 -1.421875 18.890625 -0.6875 
Q 15.09375 0.046875 10.984375 1.515625 
z
M 30.609375 32.421875 
Q 37.25 32.421875 41.125 36.953125 
Q 45.015625 41.5 45.015625 49.421875 
Q 45.015625 57.28125 41.125 61.84375 
Q 37.25 66.40625 30.609375 66.40625 
Q 23.96875 66.40625 20.09375 61.84375 
Q 16.21875 57.28125 16.21875 49.421875 
Q 16.21875 41.5 20.09375 36.953125 
Q 23.96875 32.421875 30.609375 32.421875 
z
" id="DejaVuSans-57"/>
      </defs>
      <g transform="translate(41.114375 235.489894)scale(0.1 -0.1)">
       <use xlink:href="#DejaVuSans-49"/>
       <use x="63.623047" xlink:href="#DejaVuSans-46"/>
       <use x="95.410156" xlink:href="#DejaVuSans-57"/>
       <use x="159.033203" xlink:href="#DejaVuSans-48"/>
      </g>
     </g>
    </g>
    <g id="ytick_4">
     <g id="line2d_10">
      <g>
       <use style="stroke:#000000;stroke-width:0.8;" x="70.38" xlink:href="#m620d3962c2" y="157.457797"/>
      </g>
     </g>
     <g id="text_11">
      <!-- 1.95 -->
      <g transform="translate(41.114375 161.257016)scale(0.1 -0.1)">
       <use xlink:href="#DejaVuSans-49"/>
       <use x="63.623047" xlink:href="#DejaVuSans-46"/>
       <use x="95.410156" xlink:href="#DejaVuSans-57"/>
       <use x="159.033203" xlink:href="#DejaVuSans-53"/>
      </g>
     </g>
    </g>
    <g id="ytick_5">
     <g id="line2d_11">
      <g>
       <use style="stroke:#000000;stroke-width:0.8;" x="70.38" xlink:href="#m620d3962c2" y="83.224919"/>
      </g>
     </g>
     <g id="text_12">
      <!-- 2.00 -->
      <g transform="translate(41.114375 87.024137)scale(0.1 -0.1)">
       <use xlink:href="#DejaVuSans-50"/>
       <use x="63.623047" xlink:href="#DejaVuSans-46"/>
       <use x="95.410156" xlink:href="#DejaVuSans-48"/>
       <use x="159.033203" xlink:href="#DejaVuSans-48"/>
      </g>
     </g>
    </g>
    <g id="text_13">
     <!-- $\sigma^2$ -->
     <defs>
      <path d="M 34.671875 47.5625 
Q 27.25 47.5625 22.21875 42.1875 
Q 16.890625 36.578125 15.140625 27.296875 
Q 13.1875 17.484375 16.3125 11.8125 
Q 19.390625 6.203125 26.65625 6.203125 
Q 33.84375 6.203125 39.109375 11.859375 
Q 44.4375 17.53125 46.34375 27.296875 
Q 48.046875 36.234375 45.015625 42.1875 
Q 42.1875 47.5625 34.671875 47.5625 
z
M 36.078125 54.734375 
L 65.921875 54.6875 
L 64.15625 45.703125 
L 54.109375 45.703125 
Q 57.90625 38.09375 55.859375 27.296875 
Q 53.21875 13.875 45.0625 6.25 
Q 36.859375 -1.421875 25.140625 -1.421875 
Q 13.375 -1.421875 8.203125 6.25 
Q 3.03125 13.875 5.671875 27.296875 
Q 8.25 40.765625 16.40625 48.390625 
Q 23.1875 54.734375 36.078125 54.734375 
z
" id="DejaVuSans-Oblique-963"/>
     </defs>
     <g transform="translate(35.034687 229.7776)rotate(-90)scale(0.1 -0.1)">
      <use transform="translate(0 0.765625)" xlink:href="#DejaVuSans-Oblique-963"/>
      <use transform="translate(67.851615 39.046875)scale(0.7)" xlink:href="#DejaVuSans-50"/>
     </g>
    </g>
   </g>
   <g id="line2d_12">
    <path clip-path="url(#p856e787e43)" d="M 90.214364 305.452832 
L 90.214364 378.81837 
L 90.615058 315.721225 
L 90.615058 379.2096 
L 91.015752 277.761071 
L 91.015752 363.692177 
L 91.416446 304.989943 
L 91.416446 328.738012 
L 91.81714 229.370967 
L 91.81714 329.218283 
L 92.217835 286.037841 
L 92.217835 251.503046 
L 92.618529 268.78208 
L 92.618529 227.569121 
L 93.019223 272.60541 
L 93.019223 286.929249 
L 93.419917 243.528196 
L 93.419917 264.307878 
L 93.820612 219.188094 
L 93.820612 257.831136 
L 94.221306 210.201422 
L 94.221306 247.499912 
L 94.622 193.801491 
L 94.622 214.432095 
L 95.022694 210.592249 
L 95.022694 244.888114 
L 95.423388 190.976737 
L 95.423388 204.40101 
L 95.824083 181.954156 
L 95.824083 218.327039 
L 96.224777 202.683491 
L 96.224777 134.406871 
L 96.625471 186.49393 
L 96.625471 157.536685 
L 97.026165 185.248209 
L 97.026165 179.97733 
L 97.42686 187.788518 
L 97.42686 198.410529 
L 97.827554 157.494152 
L 97.827554 179.206989 
L 98.228248 208.812814 
L 98.228248 208.072953 
L 98.628942 210.653572 
L 98.628942 189.526638 
L 99.029636 173.88243 
L 99.029636 196.498026 
L 99.430331 170.452564 
L 99.430331 191.152723 
L 99.831025 166.142462 
L 99.831025 184.417711 
L 100.231719 141.685242 
L 100.231719 186.623313 
L 100.632413 180.379538 
L 100.632413 148.707154 
L 101.033107 196.89652 
L 101.433802 187.440416 
L 101.433802 122.797996 
L 101.834496 179.814101 
L 101.834496 197.956674 
L 102.23519 163.364327 
L 102.23519 141.825036 
L 102.635884 133.908037 
L 102.635884 129.191638 
L 103.036579 158.50508 
L 103.437273 139.207503 
L 103.437273 164.540522 
L 103.837967 143.146216 
L 103.837967 152.432369 
L 104.238661 185.289266 
L 104.238661 163.570605 
L 104.639355 133.999536 
L 104.639355 124.959348 
L 105.04005 159.77975 
L 105.04005 148.306223 
L 105.440744 148.23989 
L 105.440744 154.63444 
L 105.841438 143.329242 
L 105.841438 185.949455 
L 106.242132 157.108521 
L 106.242132 148.887136 
L 106.642826 138.434102 
L 106.642826 142.400167 
L 107.043521 165.648135 
L 107.043521 153.57621 
L 107.444215 132.57169 
L 107.444215 116.999679 
L 107.844909 134.324067 
L 107.844909 131.62841 
L 108.245603 141.714607 
L 108.245603 148.12546 
L 108.646298 158.009412 
L 109.046992 133.071679 
L 109.046992 134.991423 
L 109.447686 115.152061 
L 109.447686 124.743354 
L 109.84838 130.954004 
L 109.84838 135.556834 
L 110.249074 151.700582 
L 110.249074 131.914312 
L 110.649769 146.188859 
L 110.649769 130.58225 
L 111.050463 131.494554 
L 111.050463 133.765004 
L 111.050463 123.067498 
L 111.451157 134.300442 
L 111.451157 144.791144 
L 111.851851 158.099466 
L 111.851851 104.126695 
L 112.252545 151.3735 
L 112.252545 125.492831 
L 112.65324 131.636667 
L 112.65324 124.852574 
L 113.053934 154.71413 
L 113.053934 122.343327 
L 113.454628 120.276279 
L 113.454628 131.497363 
L 113.855322 132.711032 
L 113.855322 120.479863 
L 114.256017 121.456875 
L 114.256017 143.459839 
L 114.656711 121.488756 
L 114.656711 134.340113 
L 115.057405 131.952754 
L 115.057405 117.644295 
L 115.458099 105.409889 
L 115.458099 109.491638 
L 115.858793 147.04828 
L 115.858793 125.546366 
L 116.259488 140.146644 
L 116.259488 167.332328 
L 116.660182 107.846808 
L 116.660182 124.292397 
L 117.060876 104.154938 
L 117.060876 116.513961 
L 117.46157 117.359551 
L 117.46157 128.221476 
L 117.862264 135.577638 
L 117.862264 129.8675 
L 118.262959 121.592805 
L 118.262959 114.608318 
L 118.663653 99.104717 
L 118.663653 121.037164 
L 119.064347 97.768801 
L 119.064347 110.972788 
L 119.465041 118.937313 
L 119.465041 133.00168 
L 119.865736 114.698447 
L 119.865736 131.323269 
L 120.26643 148.546703 
L 120.26643 132.695634 
L 120.667124 109.106757 
L 120.667124 98.169989 
L 121.067818 118.96374 
L 121.067818 106.45826 
L 121.468512 107.004127 
L 121.468512 101.192471 
L 121.869207 104.953582 
L 121.869207 135.010602 
L 122.269901 126.983448 
L 122.269901 129.441434 
L 122.670595 105.20693 
L 122.670595 108.725671 
L 123.071289 101.171319 
L 123.471983 106.678345 
L 123.471983 115.599865 
L 123.872678 102.528879 
L 123.872678 119.962278 
L 124.273372 112.826629 
L 124.273372 98.359943 
L 124.674066 139.145179 
L 124.674066 115.907242 
L 125.07476 110.578289 
L 125.07476 137.352584 
L 125.475455 88.769068 
L 125.475455 104.238977 
L 125.876149 125.760713 
L 125.876149 118.092303 
L 126.276843 107.685854 
L 126.276843 89.832144 
L 126.677537 122.17986 
L 126.677537 100.383678 
L 127.078231 104.735319 
L 127.078231 102.401197 
L 127.478926 123.480172 
L 127.478926 110.160768 
L 127.87962 122.31182 
L 127.87962 104.508493 
L 128.280314 99.418794 
L 128.280314 127.333379 
L 128.681008 138.996001 
L 128.681008 107.674294 
L 129.081702 111.542404 
L 129.081702 114.62208 
L 129.482397 117.964744 
L 129.482397 121.593931 
L 129.883091 140.194607 
L 129.883091 95.726851 
L 130.283785 125.809691 
L 130.283785 97.854693 
L 130.684479 112.89562 
L 130.684479 148.570146 
L 131.085174 105.848296 
L 131.485868 117.421746 
L 131.485868 126.018719 
L 131.886562 124.127074 
L 131.886562 101.314862 
L 131.886562 111.383619 
L 132.287256 84.666172 
L 132.287256 112.483604 
L 132.68795 97.745979 
L 132.68795 106.883392 
L 133.088645 109.852916 
L 133.088645 81.881845 
L 133.489339 134.268373 
L 133.489339 81.612976 
L 133.890033 131.25567 
L 133.890033 95.570899 
L 134.290727 107.443395 
L 134.290727 104.998003 
L 134.691421 112.626092 
L 134.691421 106.604271 
L 135.092116 100.575608 
L 135.092116 108.339497 
L 135.49281 89.716708 
L 135.49281 99.059666 
L 135.893504 105.184009 
L 135.893504 103.13588 
L 136.294198 107.551021 
L 136.294198 129.79016 
L 136.694893 119.852016 
L 136.694893 102.583706 
L 137.095587 117.712708 
L 137.095587 126.270395 
L 137.496281 91.410051 
L 137.496281 94.261909 
L 137.896975 104.480755 
L 137.896975 115.404305 
L 138.297669 100.390796 
L 138.297669 119.740402 
L 138.698364 113.7499 
L 138.698364 105.753343 
L 139.099058 106.016503 
L 139.099058 108.829833 
L 139.499752 102.813737 
L 139.499752 126.754499 
L 139.900446 97.984354 
L 140.30114 93.76917 
L 140.30114 102.36825 
L 140.701835 108.193543 
L 141.102529 102.118272 
L 141.102529 95.840465 
L 141.503223 105.829091 
L 141.503223 98.52728 
L 141.903917 94.447704 
L 141.903917 110.062766 
L 142.304612 104.87473 
L 142.304612 101.063676 
L 142.705306 97.095473 
L 142.705306 91.552729 
L 143.106 107.963044 
L 143.106 115.365978 
L 143.506694 101.779253 
L 143.506694 116.728542 
L 143.907388 101.412689 
L 143.907388 115.761812 
L 144.308083 93.188472 
L 144.308083 102.590541 
L 144.708777 89.838729 
L 144.708777 94.716099 
L 145.109471 110.822658 
L 145.109471 83.704356 
L 145.510165 99.099676 
L 145.510165 107.118969 
L 145.91086 101.452506 
L 146.311554 90.301355 
L 146.311554 101.82134 
L 146.712248 106.616907 
L 146.712248 125.487627 
L 147.112942 105.261985 
L 147.513636 122.321243 
L 147.513636 101.732596 
L 147.914331 111.399317 
L 147.914331 116.14167 
L 148.315025 105.397013 
L 148.315025 120.268502 
L 148.715719 106.860733 
L 149.116413 91.089282 
L 149.116413 100.743126 
L 149.517107 104.439124 
L 149.517107 87.053611 
L 149.917802 88.167965 
L 149.917802 109.388241 
L 150.318496 109.149289 
L 150.318496 104.50392 
L 150.71919 76.728332 
L 150.71919 104.063969 
L 151.119884 85.40297 
L 151.119884 103.518116 
L 151.520579 107.444825 
L 151.520579 103.91776 
L 151.921273 99.920775 
L 151.921273 90.340611 
L 152.321967 90.144417 
L 152.321967 99.151583 
L 152.722661 108.871108 
L 152.722661 105.487927 
L 152.722661 111.197742 
L 153.123355 102.644666 
L 153.123355 97.927517 
L 153.52405 99.646692 
L 153.52405 109.459302 
L 153.924744 96.253311 
L 153.924744 115.178671 
L 154.325438 90.553288 
L 154.325438 97.759923 
L 154.726132 86.366783 
L 154.726132 109.64166 
L 155.126826 102.187319 
L 155.126826 90.639574 
L 155.527521 99.309958 
L 155.527521 97.277863 
L 155.928215 94.730067 
L 155.928215 108.181628 
L 156.328909 98.061305 
L 156.328909 110.777988 
L 156.729603 101.052803 
L 156.729603 91.552061 
L 157.130298 95.30565 
L 157.130298 113.81959 
L 157.530992 111.190464 
L 157.530992 93.666519 
L 157.931686 117.204216 
L 157.931686 103.35008 
L 158.33238 100.585689 
L 158.33238 93.733768 
L 158.733074 98.203539 
L 158.733074 92.170802 
L 159.133769 114.2792 
L 159.133769 90.470987 
L 159.534463 86.405003 
L 159.534463 95.000154 
L 159.935157 96.972447 
L 159.935157 93.845018 
L 160.335851 102.046779 
L 160.736545 89.143737 
L 160.736545 98.135104 
L 161.13724 92.980613 
L 161.13724 101.194446 
L 161.537934 100.022847 
L 161.537934 82.522952 
L 161.938628 105.063768 
L 161.938628 111.994404 
L 162.339322 83.250854 
L 162.339322 85.682621 
L 162.740017 85.345458 
L 162.740017 100.355992 
L 163.140711 97.239475 
L 163.140711 92.986196 
L 163.541405 94.952065 
L 163.541405 92.360664 
L 163.942099 93.784005 
L 163.942099 91.938204 
L 164.342793 92.994637 
L 164.342793 86.174737 
L 164.743488 100.25641 
L 164.743488 96.051779 
L 165.144182 94.934453 
L 165.144182 102.786755 
L 165.544876 94.480069 
L 165.544876 94.716729 
L 165.94557 94.226432 
L 165.94557 86.652955 
L 166.346264 97.213129 
L 166.346264 108.269567 
L 166.746959 86.930799 
L 166.746959 99.497099 
L 167.147653 100.183314 
L 167.147653 90.875079 
L 167.548347 105.451575 
L 167.548347 94.510968 
L 167.949041 82.861178 
L 167.949041 98.471576 
L 168.349736 89.157665 
L 168.349736 96.267212 
L 168.75043 93.009898 
L 168.75043 107.352861 
L 169.151124 106.364873 
L 169.151124 106.885333 
L 169.551818 107.458932 
L 169.551818 108.481184 
L 169.952512 75.514202 
L 169.952512 81.175725 
L 170.353207 105.829763 
L 170.353207 105.540745 
L 170.753901 101.093613 
L 170.753901 96.447115 
L 171.154595 95.939558 
L 171.154595 93.727461 
L 171.555289 105.236712 
L 171.555289 83.852182 
L 171.955983 104.547676 
L 171.955983 89.428871 
L 172.356678 102.533453 
L 172.356678 109.446686 
L 172.757372 92.319496 
L 172.757372 85.028492 
L 173.158066 88.948486 
L 173.158066 81.924109 
L 173.55876 89.180289 
L 173.55876 110.927573 
L 173.959455 79.377476 
L 173.959455 99.681967 
L 174.360149 94.760074 
L 174.360149 104.331594 
L 174.760843 107.32017 
L 174.760843 97.492392 
L 175.161537 100.802216 
L 175.161537 104.767616 
L 175.562231 98.845451 
L 175.562231 105.950579 
L 175.962926 108.803537 
L 175.962926 108.36533 
L 176.36362 102.036606 
L 176.36362 86.159749 
L 176.764314 84.040206 
L 176.764314 95.336028 
L 177.165008 93.679869 
L 177.165008 95.336107 
L 177.565702 99.923019 
L 177.565702 96.65876 
L 177.966397 100.60914 
L 177.966397 95.170762 
L 178.367091 92.391927 
L 178.367091 107.02122 
L 178.767785 92.638855 
L 178.767785 77.761462 
L 179.168479 87.66176 
L 179.168479 100.607314 
L 179.569174 103.078123 
L 179.569174 95.388251 
L 179.969868 102.154873 
L 179.969868 92.121595 
L 180.370562 88.025146 
L 180.370562 86.354747 
L 180.771256 86.32781 
L 180.771256 103.074629 
L 181.17195 97.768111 
L 181.17195 88.592339 
L 181.572645 103.166501 
L 181.572645 92.247009 
L 181.973339 95.631429 
L 181.973339 98.320201 
L 182.374033 93.802689 
L 182.374033 97.323081 
L 182.774727 88.015397 
L 182.774727 91.906579 
L 183.175421 99.720766 
L 183.175421 92.03153 
L 183.576116 102.57089 
L 183.576116 95.162881 
L 183.97681 98.350575 
L 183.97681 101.574492 
L 184.377504 109.029299 
L 184.377504 107.771506 
L 184.778198 89.706955 
L 184.778198 95.110779 
L 185.178893 98.735321 
L 185.178893 96.869162 
L 185.579587 102.640472 
L 185.579587 88.874049 
L 185.980281 93.564366 
L 185.980281 77.281837 
L 186.781669 106.873869 
L 186.781669 100.208644 
L 187.182364 89.181924 
L 187.583058 107.256118 
L 187.583058 84.65386 
L 187.983752 96.25197 
L 187.983752 87.821176 
L 188.384446 95.570573 
L 188.384446 101.15809 
L 188.78514 96.175175 
L 188.78514 104.267702 
L 189.185835 100.880455 
L 189.185835 95.209169 
L 189.586529 97.921939 
L 189.586529 117.720895 
L 189.987223 75.586907 
L 189.987223 94.424591 
L 190.387917 105.418669 
L 190.387917 94.496803 
L 190.788612 84.379594 
L 191.189306 108.715659 
L 191.59 99.327067 
L 191.59 94.712549 
L 191.990694 100.472551 
L 191.990694 93.95931 
L 192.391388 97.009846 
L 192.391388 81.769273 
L 192.792083 94.97721 
L 192.792083 93.903766 
L 193.192777 90.001547 
L 193.192777 90.814756 
L 193.593471 101.826247 
L 193.593471 93.213568 
L 193.994165 94.682918 
L 193.994165 89.863664 
L 194.39486 81.645441 
L 194.39486 97.844485 
L 194.795554 86.593485 
L 194.795554 96.162977 
L 195.196248 90.594117 
L 195.196248 97.066069 
L 195.596942 102.477753 
L 195.596942 98.774725 
L 195.997636 102.582212 
L 195.997636 90.567782 
L 196.398331 89.90841 
L 196.398331 101.170796 
L 196.799025 98.177023 
L 196.799025 98.964049 
L 197.199719 92.654192 
L 197.199719 110.196378 
L 197.600413 102.507501 
L 197.600413 86.790304 
L 198.001107 84.177599 
L 198.001107 92.280899 
L 198.401802 89.72123 
L 198.401802 97.290244 
L 198.802496 89.249536 
L 198.802496 92.716433 
L 199.20319 93.102332 
L 199.20319 102.667375 
L 199.603884 101.814287 
L 199.603884 105.254924 
L 200.004579 97.498785 
L 200.004579 75.864191 
L 200.405273 96.218891 
L 200.405273 94.134587 
L 200.805967 75.13666 
L 200.805967 81.020609 
L 201.206661 95.757994 
L 201.607355 86.741332 
L 201.607355 76.924712 
L 202.00805 95.712753 
L 202.00805 92.191534 
L 202.408744 84.4961 
L 202.408744 93.899914 
L 202.809438 76.258225 
L 202.809438 98.540636 
L 203.210132 100.154305 
L 203.210132 95.462837 
L 203.610826 95.770249 
L 203.610826 103.648632 
L 204.011521 94.056292 
L 204.412215 96.089208 
L 204.412215 108.297986 
L 204.812909 98.74652 
L 204.812909 86.498489 
L 205.213603 92.84592 
L 205.213603 111.143702 
L 205.614298 89.966708 
L 206.014992 93.340327 
L 206.014992 92.330068 
L 206.415686 105.473357 
L 206.415686 97.033561 
L 206.81638 92.06653 
L 206.81638 95.195196 
L 207.217074 88.032382 
L 207.217074 91.893382 
L 207.617769 99.279587 
L 207.617769 90.416788 
L 208.018463 97.949585 
L 208.018463 102.294075 
L 208.419157 106.499042 
L 208.419157 110.569954 
L 208.819851 102.953725 
L 208.819851 97.348026 
L 209.220545 99.350665 
L 209.220545 81.533544 
L 209.62124 90.783171 
L 209.62124 103.454578 
L 210.021934 81.596026 
L 210.021934 92.363649 
L 210.422628 98.588783 
L 210.422628 94.458121 
L 210.823322 98.959471 
L 210.823322 96.421513 
L 211.224017 117.266601 
L 211.224017 93.349788 
L 211.624711 98.68673 
L 211.624711 79.09645 
L 212.025405 102.781059 
L 212.025405 102.034463 
L 212.426099 98.153054 
L 212.426099 93.784381 
L 212.826793 95.550944 
L 212.826793 98.931327 
L 213.227488 84.29782 
L 213.227488 92.968168 
L 213.628182 98.372801 
L 213.628182 101.190008 
L 214.028876 89.306417 
L 214.028876 101.380818 
L 214.42957 96.871782 
L 214.42957 89.093504 
L 214.830264 91.324002 
L 214.830264 98.054979 
L 215.230959 89.069349 
L 215.230959 102.343695 
L 215.631653 87.432517 
L 215.631653 87.494937 
L 216.032347 93.268014 
L 216.032347 100.470654 
L 216.433041 82.025643 
L 216.433041 99.29089 
L 216.833736 91.956095 
L 216.833736 89.355778 
L 217.23443 81.646252 
L 217.23443 78.741685 
L 217.635124 88.257971 
L 217.635124 91.682 
L 218.035818 83.594634 
L 218.035818 93.998829 
L 218.436512 84.575435 
L 218.436512 90.140829 
L 218.837207 95.161827 
L 218.837207 98.744641 
L 219.237901 85.363962 
L 219.237901 90.699456 
L 219.638595 99.787213 
L 220.039289 81.743635 
L 220.439983 77.291321 
L 220.439983 97.397387 
L 220.840678 96.73901 
L 220.840678 80.303797 
L 221.241372 87.154094 
L 221.241372 93.181933 
L 221.642066 110.472071 
L 221.642066 90.00608 
L 222.04276 100.667568 
L 222.04276 87.859377 
L 222.443455 81.407773 
L 222.443455 98.820159 
L 222.844149 96.539249 
L 222.844149 93.09376 
L 223.244843 86.485589 
L 223.244843 93.747774 
L 223.645537 99.151632 
L 223.645537 91.362978 
L 224.046231 77.292797 
L 224.046231 91.110697 
L 224.446926 84.848231 
L 224.446926 74.861944 
L 224.84762 96.733521 
L 224.84762 92.93968 
L 225.248314 96.773988 
L 225.248314 88.757569 
L 225.649008 106.096688 
L 225.649008 103.464905 
L 226.049702 91.950988 
L 226.049702 97.449452 
L 226.450397 95.353316 
L 226.450397 99.05757 
L 226.851091 97.157488 
L 226.851091 98.192216 
L 227.251785 87.764502 
L 227.251785 82.242981 
L 227.652479 101.496641 
L 227.652479 90.771965 
L 228.053174 80.284642 
L 228.053174 86.110431 
L 228.453868 94.019179 
L 228.453868 87.242855 
L 228.854562 93.179433 
L 228.854562 88.49404 
L 229.255256 87.105528 
L 229.255256 97.190008 
L 229.65595 95.818187 
L 229.65595 90.110066 
L 230.056645 95.547809 
L 230.056645 94.999415 
L 230.457339 89.047373 
L 230.457339 95.18576 
L 230.858033 91.782758 
L 230.858033 85.178217 
L 231.258727 100.222745 
L 231.258727 85.043485 
L 231.659421 87.109871 
L 231.659421 83.805237 
L 232.060116 90.985882 
L 232.060116 89.638099 
L 232.46081 86.730925 
L 232.46081 97.462947 
L 232.861504 88.252498 
L 232.861504 89.275123 
L 233.262198 86.919866 
L 233.262198 91.471308 
L 233.662893 88.453275 
L 233.662893 95.595985 
L 234.063587 82.892049 
L 234.464281 94.920376 
L 234.864975 77.316878 
L 234.864975 86.476608 
L 235.265669 90.071832 
L 235.265669 88.514464 
L 235.666364 94.096181 
L 235.666364 98.313096 
L 236.067058 102.132582 
L 236.067058 93.083095 
L 236.067058 103.385819 
L 236.467752 83.436834 
L 236.467752 96.395223 
L 236.868446 86.212563 
L 236.868446 81.45107 
L 237.26914 91.306578 
L 237.26914 89.445681 
L 237.669835 84.692884 
L 237.669835 87.128279 
L 238.070529 103.392478 
L 238.070529 86.980616 
L 238.471223 92.287201 
L 238.471223 83.485751 
L 238.871917 91.348495 
L 239.272612 90.722357 
L 239.272612 105.197286 
L 239.673306 94.733778 
L 239.673306 82.2915 
L 240.074 98.408331 
L 240.074 90.237446 
L 240.474694 91.403417 
L 240.474694 102.802286 
L 240.875388 86.445286 
L 240.875388 94.651235 
L 241.276083 89.330169 
L 241.276083 89.827228 
L 241.676777 101.503447 
L 241.676777 82.438532 
L 242.077471 87.669669 
L 242.077471 90.816445 
L 242.478165 98.0268 
L 242.478165 87.886608 
L 242.87886 91.431534 
L 242.87886 82.556206 
L 243.279554 88.378876 
L 243.279554 94.085121 
L 243.680248 84.525563 
L 243.680248 96.929829 
L 244.080942 85.155834 
L 244.080942 100.688654 
L 244.481636 88.781687 
L 244.481636 89.013161 
L 244.882331 105.611271 
L 244.882331 93.877726 
L 245.283025 92.804438 
L 245.283025 96.335628 
L 245.683719 88.676037 
L 245.683719 89.807353 
L 246.084413 94.782493 
L 246.084413 98.641838 
L 246.485107 100.734246 
L 246.485107 84.612739 
L 246.885802 90.287843 
L 246.885802 94.245056 
L 247.286496 92.896906 
L 247.286496 89.008902 
L 247.68719 85.635024 
L 248.087884 93.970083 
L 248.087884 77.565716 
L 248.488579 93.353822 
L 248.889273 86.380103 
L 248.889273 102.409374 
L 249.289967 97.904486 
L 249.690661 95.757796 
L 249.690661 99.315285 
L 250.091355 92.841224 
L 250.091355 85.295023 
L 250.49205 98.164507 
L 250.49205 84.984113 
L 250.892744 80.572971 
L 251.293438 91.314394 
L 251.293438 90.78865 
L 251.694132 81.253823 
L 251.694132 95.896089 
L 252.094826 85.771051 
L 252.094826 82.032549 
L 252.495521 95.027897 
L 252.495521 91.870591 
L 252.896215 95.512352 
L 252.896215 88.39053 
L 253.296909 88.71828 
L 253.296909 87.20455 
L 253.697603 92.424071 
L 253.697603 90.707124 
L 254.098298 87.084984 
L 254.098298 97.69502 
L 254.498992 92.184568 
L 254.498992 89.201595 
L 254.899686 73.440009 
L 254.899686 90.637362 
L 255.30038 100.775677 
L 255.30038 81.518929 
L 255.701074 89.221797 
L 255.701074 94.897857 
L 256.101769 98.677728 
L 256.101769 93.578857 
L 256.502463 92.71785 
L 256.502463 81.571332 
L 256.903157 86.54541 
L 256.903157 88.336682 
L 257.303851 77.581414 
L 257.303851 95.162633 
L 257.704545 95.317971 
L 257.704545 92.63911 
L 258.10524 82.560505 
L 258.10524 101.155024 
L 258.505934 94.368363 
L 258.505934 80.922902 
L 258.906628 91.273816 
L 258.906628 80.907714 
L 259.307322 91.12386 
L 259.708017 87.563849 
L 259.708017 88.446602 
L 260.108711 86.599348 
L 260.108711 92.55253 
L 260.509405 91.371564 
L 260.509405 90.621268 
L 260.910099 89.295457 
L 260.910099 68.7456 
L 261.310793 99.788241 
L 261.310793 96.482789 
L 261.711488 82.775989 
L 261.711488 90.108698 
L 262.112182 98.697502 
L 262.112182 92.454493 
L 262.512876 102.988945 
L 262.512876 93.774104 
L 262.91357 93.322405 
L 262.91357 93.110841 
L 263.314264 91.469031 
L 263.314264 92.637201 
L 263.714959 90.623215 
L 263.714959 87.313776 
L 264.115653 88.170431 
L 264.115653 92.734162 
L 264.516347 88.296888 
L 264.917041 91.764063 
L 264.917041 87.517462 
L 265.317736 82.07233 
L 265.317736 84.243629 
L 265.71843 87.470285 
L 265.71843 69.254814 
L 266.119124 86.578381 
L 266.119124 85.531908 
L 266.519818 88.303669 
L 266.519818 96.608615 
L 266.920512 84.443949 
L 266.920512 90.260749 
L 267.321207 87.891607 
L 267.321207 81.588667 
L 267.721901 89.904847 
L 267.721901 89.711994 
L 268.122595 84.585251 
L 268.122595 88.206423 
L 268.523289 78.483034 
L 268.523289 89.329134 
L 268.923983 90.75685 
L 268.923983 92.007457 
L 269.324678 103.144242 
L 269.324678 86.066299 
L 269.725372 97.826508 
L 269.725372 89.717306 
L 270.126066 90.432429 
L 270.126066 92.807125 
L 270.52676 88.596852 
L 270.52676 77.737361 
L 270.927455 85.109445 
L 270.927455 91.44856 
L 271.328149 89.326106 
L 271.328149 92.661004 
L 271.728843 90.711087 
L 271.728843 100.788494 
L 272.129537 97.313652 
L 272.129537 94.824602 
L 272.530231 88.157118 
L 272.530231 85.668898 
L 272.930926 88.12628 
L 272.930926 84.666938 
L 273.33162 97.213271 
L 273.732314 85.223689 
L 273.732314 108.046032 
L 274.133008 81.450735 
L 274.133008 89.721458 
L 274.533702 97.85826 
L 274.533702 97.821987 
L 274.934397 84.758446 
L 274.934397 86.955106 
L 275.335091 91.560632 
L 275.335091 93.490843 
L 275.735785 84.0062 
L 276.136479 85.780552 
L 276.136479 95.833724 
L 276.537174 86.732921 
L 276.537174 80.47696 
L 276.937868 88.612232 
L 276.937868 97.454951 
L 277.338562 86.622404 
L 277.338562 76.62751 
L 277.739256 97.45022 
L 277.739256 90.020356 
L 277.739256 90.758592 
L 278.13995 92.245789 
L 278.13995 94.935124 
L 278.540645 84.264211 
L 278.540645 100.135962 
L 278.941339 90.037449 
L 278.941339 97.749583 
L 279.342033 90.280426 
L 279.342033 87.906634 
L 279.742727 84.670298 
L 279.742727 90.383139 
L 280.143421 87.338892 
L 280.143421 96.746723 
L 280.544116 87.244269 
L 280.94481 94.098898 
L 280.94481 89.129528 
L 281.345504 87.011165 
L 281.345504 82.697803 
L 281.746198 80.613381 
L 281.746198 87.555544 
L 282.146893 86.613366 
L 282.146893 78.470842 
L 282.547587 87.064466 
L 282.547587 87.020188 
L 282.948281 93.245723 
L 282.948281 86.867158 
L 283.348975 95.45302 
L 283.348975 89.901894 
L 283.749669 85.074723 
L 283.749669 91.076285 
L 284.150364 95.023187 
L 284.150364 83.080976 
L 284.551058 90.635316 
L 284.551058 97.720944 
L 284.951752 86.385351 
L 284.951752 90.526279 
L 285.352446 90.330471 
L 285.352446 79.408197 
L 285.75314 95.073867 
L 285.75314 88.63593 
L 286.153835 84.710434 
L 286.153835 86.037053 
L 286.554529 101.204461 
L 286.554529 95.228556 
L 286.955223 89.786628 
L 286.955223 85.271197 
L 287.355917 97.040633 
L 287.355917 86.746347 
L 287.756612 82.227714 
L 287.756612 94.850801 
L 288.157306 83.084462 
L 288.157306 87.187342 
L 288.558 95.636486 
L 288.558 90.205288 
L 288.958694 82.594622 
L 288.958694 87.878262 
L 289.359388 96.340583 
L 289.359388 87.232481 
L 289.760083 78.891148 
L 289.760083 90.566676 
L 290.160777 90.483617 
L 290.160777 81.197287 
L 290.561471 82.734461 
L 290.561471 85.170941 
L 290.962165 84.797143 
L 290.962165 79.001476 
L 291.36286 88.076939 
L 291.36286 96.974279 
L 291.763554 87.721708 
L 291.763554 93.183718 
L 292.164248 98.444737 
L 292.164248 92.839194 
L 292.564942 89.386913 
L 292.564942 94.039911 
L 292.965636 107.758783 
L 292.965636 88.659715 
L 293.366331 99.29266 
L 293.366331 99.029366 
L 293.767025 96.363175 
L 293.767025 87.89012 
L 294.167719 88.410278 
L 294.167719 91.535273 
L 294.568413 96.841134 
L 294.568413 100.164952 
L 294.969107 97.538712 
L 294.969107 85.606419 
L 295.369802 93.790236 
L 295.369802 82.733272 
L 295.770496 99.755576 
L 295.770496 89.385422 
L 296.17119 89.775503 
L 296.17119 91.362802 
L 296.571884 82.035665 
L 296.571884 101.660418 
L 296.972579 100.023214 
L 296.972579 79.309271 
L 297.373273 88.005964 
L 297.373273 85.950933 
L 297.773967 87.064503 
L 297.773967 85.097993 
L 298.174661 85.527167 
L 298.174661 82.342866 
L 298.575355 95.850218 
L 298.97605 93.821953 
L 298.97605 87.092506 
L 298.97605 91.676739 
L 299.376744 80.840438 
L 299.376744 94.793805 
L 299.777438 90.409884 
L 299.777438 84.715727 
L 300.178132 90.308355 
L 300.178132 86.711082 
L 300.578826 82.178267 
L 300.578826 86.693998 
L 300.979521 83.644536 
L 300.979521 83.935575 
L 301.380215 93.477929 
L 301.380215 92.127718 
L 301.780909 84.860159 
L 301.780909 92.863906 
L 302.181603 84.970991 
L 302.181603 86.333543 
L 302.582298 83.196924 
L 302.582298 88.222716 
L 302.982992 94.372135 
L 302.982992 90.150419 
L 303.383686 84.973302 
L 303.383686 84.97747 
L 303.78438 93.223278 
L 303.78438 87.321647 
L 304.185074 92.354497 
L 304.185074 90.966782 
L 304.585769 87.707618 
L 304.585769 92.175421 
L 304.986463 89.130945 
L 304.986463 99.63027 
L 305.387157 96.493212 
L 305.387157 80.276797 
L 305.787851 86.25343 
L 305.787851 88.908458 
L 306.188545 88.028047 
L 306.188545 91.369834 
L 306.58924 86.112287 
L 306.58924 87.860028 
L 307.390628 81.431781 
L 307.390628 90.78175 
L 307.791322 87.667144 
L 307.791322 93.285246 
L 308.192017 82.879301 
L 308.192017 88.511549 
L 308.592711 82.285007 
L 308.592711 90.744735 
L 308.993405 76.662988 
L 308.993405 85.874402 
L 309.394099 83.028041 
L 309.394099 86.146123 
L 309.794793 84.370081 
L 309.794793 79.910168 
L 310.195488 89.705996 
L 310.195488 86.601914 
L 310.596182 89.638492 
L 310.996876 89.05326 
L 310.996876 83.827623 
L 311.39757 88.170678 
L 311.39757 97.190925 
L 311.798264 86.680599 
L 311.798264 88.073663 
L 312.198959 93.555436 
L 312.198959 86.272824 
L 312.599653 98.427491 
L 312.599653 89.756224 
L 313.000347 88.399286 
L 313.000347 84.295441 
L 313.401041 98.20637 
L 313.801736 82.58396 
L 314.20243 94.857908 
L 314.603124 92.549632 
L 314.603124 82.35644 
L 315.003818 93.155049 
L 315.003818 96.491547 
L 315.404512 86.175406 
L 315.404512 86.573704 
L 315.805207 81.320591 
L 315.805207 82.768554 
L 316.205901 91.461495 
L 316.205901 85.959348 
L 316.606595 88.532313 
L 316.606595 96.1118 
L 317.007289 77.945501 
L 317.007289 82.879341 
L 317.407983 84.943093 
L 317.407983 83.149246 
L 317.808678 87.899632 
L 318.209372 93.394626 
L 318.209372 86.125585 
L 318.610066 82.735834 
L 318.610066 92.167506 
L 319.01076 91.153761 
L 319.01076 86.400009 
L 319.411455 92.305797 
L 319.411455 96.00736 
L 319.812149 90.065349 
L 319.812149 90.228063 
L 319.812149 87.335792 
L 320.212843 90.222092 
L 320.212843 84.42936 
L 320.613537 79.43717 
L 320.613537 85.571309 
L 321.014231 85.256442 
L 321.414926 97.242024 
L 321.414926 81.122767 
L 321.81562 86.317281 
L 321.81562 87.806378 
L 322.216314 85.294 
L 322.216314 90.940668 
L 322.617008 91.179715 
L 322.617008 86.345859 
L 323.017702 84.818623 
L 323.017702 87.538592 
L 323.418397 88.011684 
L 323.418397 79.511004 
L 323.819091 95.388649 
L 323.819091 86.023432 
L 324.219785 85.597419 
L 324.219785 90.041183 
L 324.620479 85.316241 
L 324.620479 85.834482 
L 325.021174 89.835537 
L 325.421868 92.183086 
L 325.421868 89.086417 
L 325.822562 84.16769 
L 325.822562 88.290161 
L 326.223256 87.935797 
L 326.223256 79.615184 
L 326.62395 92.992524 
L 326.62395 82.604055 
L 327.024645 90.355442 
L 327.024645 76.985151 
L 327.425339 88.314162 
L 327.425339 84.702046 
L 327.826033 92.913453 
L 327.826033 87.909052 
L 328.226727 96.939393 
L 328.226727 88.762515 
L 328.627421 88.182812 
L 328.627421 86.858985 
L 329.028116 86.016163 
L 329.028116 97.363415 
L 329.42881 84.259079 
L 329.42881 87.924462 
L 329.829504 96.973303 
L 329.829504 84.487289 
L 330.230198 92.119859 
L 330.230198 91.98187 
L 330.630893 92.584926 
L 330.630893 86.60557 
L 331.031587 96.208926 
L 331.031587 90.495398 
L 331.432281 88.074015 
L 331.432281 91.28966 
L 331.832975 86.836719 
L 331.832975 87.562043 
L 332.233669 86.967663 
L 332.233669 87.728871 
L 332.634364 79.964439 
L 332.634364 91.083104 
L 333.035058 90.416499 
L 333.035058 80.240527 
L 333.435752 92.399157 
L 333.435752 101.88306 
L 333.836446 83.137362 
L 334.23714 95.968279 
L 334.637835 91.545989 
L 334.637835 92.087533 
L 335.038529 89.475356 
L 335.038529 92.277292 
L 335.439223 90.144909 
L 335.439223 88.474365 
L 335.839917 87.109037 
L 335.839917 90.814934 
L 336.240612 82.461133 
L 336.240612 90.460117 
L 336.641306 94.742105 
L 336.641306 92.050133 
L 337.042 93.441706 
L 337.042 87.540747 
L 337.442694 82.886046 
L 337.843388 86.755436 
L 338.244083 81.435068 
L 338.244083 75.995814 
L 338.644777 94.316959 
L 338.644777 83.905364 
L 339.045471 84.482735 
L 339.045471 92.816833 
L 339.446165 84.308062 
L 339.446165 81.791289 
L 339.84686 86.578059 
L 340.247554 84.280775 
L 340.247554 84.587937 
L 340.648248 87.979982 
L 340.648248 89.225896 
L 340.648248 88.197619 
L 341.048942 87.25137 
L 341.048942 80.093297 
L 341.449636 84.622247 
L 341.449636 86.079038 
L 341.850331 84.738099 
L 341.850331 93.65825 
L 342.251025 89.618853 
L 342.251025 94.31141 
L 342.651719 84.404422 
L 342.651719 85.455897 
L 343.052413 95.4279 
L 343.052413 85.917529 
L 343.453107 92.088176 
L 343.453107 83.859149 
L 343.853802 93.599283 
L 343.853802 86.978631 
L 344.254496 90.690032 
L 344.254496 86.963149 
L 344.65519 85.646232 
L 344.65519 93.23149 
L 345.055884 90.929337 
L 345.055884 79.750285 
L 345.456579 86.440611 
L 345.857273 95.134621 
L 345.857273 98.947506 
L 346.257967 95.245812 
L 346.257967 98.044382 
L 346.658661 86.53518 
L 346.658661 92.648399 
L 347.059355 90.628593 
L 347.059355 92.483626 
L 347.46005 81.574127 
L 347.46005 92.665853 
L 347.860744 96.520478 
L 347.860744 88.234292 
L 348.261438 77.929798 
L 348.261438 89.894581 
L 348.662132 88.666254 
L 348.662132 93.519175 
L 349.062826 81.104258 
L 349.062826 83.919277 
L 349.463521 84.858023 
L 349.463521 81.83688 
L 349.864215 88.241575 
L 349.864215 83.423158 
L 350.264909 85.380474 
L 350.264909 86.84325 
L 350.665603 76.219015 
L 350.665603 81.07566 
L 351.066298 74.693169 
L 351.066298 89.735216 
L 351.466992 87.790333 
L 351.466992 92.259562 
L 351.867686 83.453591 
L 351.867686 85.567897 
L 352.26838 94.660204 
L 352.26838 88.780035 
L 352.669074 88.492295 
L 352.669074 94.091007 
L 353.069769 88.343944 
L 353.069769 79.007752 
L 353.871157 93.581858 
L 353.871157 88.214389 
L 354.271851 82.437009 
L 354.271851 90.729794 
L 354.672545 90.306495 
L 354.672545 82.831551 
L 355.07324 86.057426 
L 355.07324 91.793731 
L 355.874628 82.57127 
L 355.874628 80.157319 
L 356.275322 88.087836 
L 356.275322 91.821082 
L 356.676017 96.045767 
L 356.676017 91.20352 
L 357.076711 95.847123 
L 357.076711 85.222201 
L 357.477405 96.630041 
L 357.477405 82.535479 
L 357.878099 87.831828 
L 357.878099 85.281218 
L 358.278793 83.23864 
L 358.278793 99.592162 
L 358.679488 90.864634 
L 358.679488 94.452401 
L 359.080182 80.575619 
L 359.080182 83.755307 
L 359.480876 84.840966 
L 359.480876 87.906106 
L 359.88157 81.544454 
L 359.88157 87.822792 
L 360.282264 86.15396 
L 360.282264 90.346118 
L 360.682959 88.902965 
L 360.682959 94.147621 
L 361.083653 81.076929 
L 361.083653 90.854472 
L 361.484347 87.913664 
L 361.484347 84.171865 
L 361.484347 88.179764 
L 361.885041 87.956451 
L 361.885041 93.97934 
L 362.285736 95.105366 
L 362.285736 81.982072 
L 362.68643 83.560933 
L 362.68643 91.397396 
L 363.087124 86.841456 
L 363.087124 90.476941 
L 363.487818 91.776801 
L 363.487818 90.250987 
L 363.888512 96.868888 
L 363.888512 93.583948 
L 364.289207 91.987503 
L 364.289207 83.533307 
L 364.689901 91.835534 
L 364.689901 91.577001 
L 365.090595 85.54004 
L 365.090595 89.620139 
L 365.491289 90.401288 
L 365.491289 99.271498 
L 365.891983 86.630759 
L 366.292678 91.745888 
L 366.292678 91.427151 
L 366.693372 83.948163 
L 366.693372 87.436929 
L 367.094066 85.770875 
L 367.094066 83.691057 
L 367.49476 84.435948 
L 367.49476 93.862671 
L 367.895455 84.091625 
L 367.895455 86.696714 
L 368.296149 87.638209 
L 368.296149 80.531718 
L 368.696843 85.738977 
L 368.696843 87.968724 
L 369.097537 91.895454 
L 369.097537 93.654726 
L 369.498231 85.771511 
L 369.498231 89.13021 
L 369.898926 87.215829 
L 369.898926 82.929153 
L 370.29962 90.262625 
L 370.29962 93.025467 
L 370.700314 92.193641 
L 370.700314 83.555012 
L 371.101008 80.723786 
L 371.101008 89.952681 
L 371.501702 96.276183 
L 371.501702 89.964617 
L 371.902397 97.453152 
L 371.902397 84.259609 
L 372.303091 94.683698 
L 372.703785 89.845764 
L 372.703785 91.688124 
L 373.104479 83.234947 
L 373.104479 86.974315 
L 373.505174 88.140717 
L 373.505174 85.178675 
L 373.905868 87.916032 
L 373.905868 88.977509 
L 374.306562 90.892261 
L 374.306562 88.130362 
L 374.707256 83.967957 
L 374.707256 92.384782 
L 375.10795 87.40553 
L 375.10795 90.289609 
L 375.508645 87.958713 
L 375.508645 84.07461 
L 375.909339 85.135379 
L 375.909339 95.703729 
L 376.310033 87.873582 
L 376.310033 81.337618 
L 376.710727 92.109125 
L 376.710727 86.595923 
L 377.111421 93.415467 
L 377.111421 93.355932 
L 377.512116 95.346059 
L 377.512116 79.876443 
L 377.91281 91.739372 
L 377.91281 87.877775 
L 378.313504 85.177292 
L 378.313504 87.157503 
L 378.714198 90.613016 
L 378.714198 89.344859 
L 379.114893 88.795735 
L 379.114893 95.290268 
L 379.515587 86.407674 
L 379.515587 87.205145 
L 379.916281 86.699213 
L 379.916281 94.753415 
L 380.316975 84.620672 
L 380.316975 87.069288 
L 380.717669 87.408209 
L 380.717669 91.387667 
L 381.118364 96.955748 
L 381.118364 86.672645 
L 381.519058 88.687187 
L 381.519058 85.259996 
L 381.919752 82.741488 
L 381.919752 84.242165 
L 382.320446 96.013137 
L 382.320446 84.849698 
L 382.320446 84.853621 
L 382.72114 93.445413 
L 383.121835 90.113882 
L 383.121835 83.931454 
L 383.522529 91.617888 
L 383.522529 87.771935 
L 383.923223 83.477503 
L 383.923223 82.13631 
L 384.323917 86.969992 
L 384.323917 92.1569 
L 384.724612 92.679374 
L 384.724612 83.544753 
L 385.125306 90.182293 
L 385.125306 93.804128 
L 385.526 90.174248 
L 385.526 77.460479 
L 385.926694 89.139898 
L 385.926694 97.89174 
L 386.728083 81.438305 
L 386.728083 87.323847 
L 387.128777 85.960736 
L 387.529471 86.171852 
L 387.529471 88.84211 
L 387.930165 79.814683 
L 387.930165 85.619543 
L 388.33086 96.559496 
L 388.33086 92.882965 
L 388.731554 83.985565 
L 388.731554 87.780968 
L 389.132248 89.325866 
L 389.132248 89.13119 
L 389.532942 87.110493 
L 389.532942 81.091061 
L 389.933636 79.302998 
L 389.933636 87.193898 
L 390.334331 87.80663 
L 390.334331 80.1005 
L 390.735025 79.759863 
L 390.735025 85.137026 
L 391.135719 88.882031 
L 391.135719 87.664858 
L 391.536413 93.849615 
L 391.536413 80.962141 
L 391.937107 86.941414 
L 391.937107 86.097042 
L 392.337802 83.965296 
L 392.337802 90.209331 
L 392.738496 81.518499 
L 392.738496 92.840565 
L 393.13919 86.320827 
L 393.13919 95.978075 
L 393.539884 89.257031 
L 393.539884 95.605003 
L 393.940579 79.479823 
L 394.341273 90.634602 
L 394.341273 97.391677 
L 394.741967 86.393247 
L 395.142661 83.1461 
L 395.142661 77.10371 
L 395.543355 90.332953 
L 395.94405 81.057254 
L 395.94405 82.289916 
L 396.344744 88.745694 
L 396.344744 95.951754 
L 396.745438 89.692302 
L 396.745438 86.668979 
L 397.146132 91.838714 
L 397.146132 82.857105 
L 397.546826 91.161405 
L 397.546826 81.243168 
L 397.947521 89.076238 
L 397.947521 88.155326 
L 398.348215 91.397287 
L 398.348215 92.500384 
L 398.748909 92.21595 
L 398.748909 84.641906 
L 399.149603 85.419437 
L 399.149603 90.659337 
L 399.550298 93.997245 
L 399.550298 90.736318 
L 399.950992 91.334573 
L 399.950992 80.226509 
L 400.351686 94.229923 
L 400.351686 82.897217 
L 400.75238 84.18908 
L 400.75238 91.82441 
L 401.153074 79.155763 
L 401.153074 81.507312 
L 401.553769 87.400336 
L 401.553769 80.107227 
L 401.954463 96.48156 
L 401.954463 88.427518 
L 402.355157 88.7693 
L 402.355157 81.961856 
L 402.755851 84.937652 
L 402.755851 87.341491 
L 403.156545 95.300287 
L 403.156545 88.00929 
L 403.55724 83.226501 
L 403.55724 94.472265 
L 403.957934 91.941481 
L 403.957934 85.841338 
L 404.358628 82.2887 
L 404.358628 91.671114 
L 404.759322 79.970137 
L 404.759322 85.389579 
L 405.160017 87.737221 
L 405.560711 92.980234 
L 405.560711 81.372068 
L 405.961405 90.851003 
L 405.961405 86.644332 
L 406.362099 79.087093 
L 406.362099 76.612449 
L 406.762793 91.212208 
L 406.762793 87.425136 
L 407.163488 81.27987 
L 407.163488 93.106968 
L 407.564182 81.791571 
L 407.564182 86.769167 
L 407.964876 81.229312 
L 407.964876 84.117041 
L 408.36557 84.394612 
L 408.36557 86.844832 
L 408.766264 87.307738 
L 408.766264 94.531356 
L 409.166959 81.703154 
L 409.567653 81.352735 
L 409.567653 84.693716 
L 409.968347 89.178758 
L 409.968347 88.484684 
L 410.369041 89.897096 
L 410.369041 93.892658 
L 410.769736 93.077193 
L 410.769736 85.179321 
L 411.17043 83.624723 
L 411.17043 85.907161 
L 411.571124 85.807674 
L 411.571124 89.049005 
L 411.971818 90.239215 
L 411.971818 84.182664 
L 412.372512 87.283833 
L 412.372512 82.871481 
L 412.773207 82.422462 
L 412.773207 86.898426 
L 413.173901 90.827017 
L 413.173901 84.904198 
L 413.574595 89.495311 
L 413.574595 86.534799 
L 413.975289 93.531243 
L 413.975289 88.218396 
L 414.375983 83.154175 
L 414.375983 85.24937 
L 414.776678 90.608405 
L 414.776678 84.197371 
L 415.177372 86.652183 
L 415.177372 90.337207 
L 415.578066 85.346453 
L 415.578066 89.087641 
L 415.97876 89.205642 
L 415.97876 92.277086 
L 416.379455 88.732806 
L 416.379455 95.113088 
L 416.780149 80.796099 
L 416.780149 89.326878 
L 417.180843 89.916041 
L 417.180843 91.156658 
L 417.581537 87.008428 
L 417.581537 89.798719 
L 417.982231 89.128315 
L 417.982231 85.46803 
L 418.382926 84.419339 
L 418.382926 86.63909 
L 418.78362 83.497013 
L 418.78362 86.354611 
L 419.184314 83.921502 
L 419.585008 83.966374 
L 419.585008 87.695511 
L 419.985702 83.763149 
L 420.386397 82.978627 
L 420.386397 80.815229 
L 420.787091 88.57306 
L 420.787091 93.222562 
L 421.187785 78.815324 
L 421.187785 88.348375 
L 421.989174 79.996089 
L 421.989174 86.971377 
L 422.389868 89.101453 
L 422.389868 87.142365 
L 422.790562 91.442899 
L 422.790562 85.591281 
L 423.191256 84.928708 
L 423.191256 87.097411 
L 423.59195 88.877699 
L 423.59195 86.854579 
L 423.992645 86.957313 
L 423.992645 94.27146 
L 424.393339 83.826089 
L 424.794033 80.660326 
L 424.794033 94.238227 
L 425.194727 90.577886 
L 425.194727 91.594797 
L 425.595421 81.765583 
L 425.595421 87.239273 
L 425.996116 92.325552 
L 426.39681 90.046014 
L 426.39681 80.105006 
L 426.797504 79.475784 
L 426.797504 79.818959 
L 427.198198 92.34785 
L 427.198198 84.804342 
L 427.598893 86.666733 
L 427.598893 89.943128 
L 427.999587 81.059453 
L 427.999587 81.745343 
L 428.400281 89.863359 
L 428.400281 88.484469 
L 428.800975 81.719494 
L 428.800975 85.545303 
L 429.201669 93.832681 
L 429.201669 84.574777 
L 429.602364 90.067391 
L 429.602364 92.749325 
L 430.003058 88.635778 
L 430.003058 81.655571 
L 430.403752 84.145026 
L 430.403752 89.862318 
L 430.804446 84.550855 
L 430.804446 82.308289 
L 431.20514 85.801995 
L 431.20514 82.668973 
L 431.605835 83.874975 
L 431.605835 86.453747 
L 432.006529 87.793332 
L 432.006529 91.87632 
L 432.407223 86.17485 
L 432.407223 86.310779 
L 432.807917 86.559723 
L 432.807917 86.459937 
L 433.208612 93.532799 
L 433.208612 84.6291 
L 433.609306 90.255871 
L 433.609306 89.110056 
L 434.01 85.409022 
L 434.01 83.070431 
L 434.410694 87.697513 
L 434.410694 82.336433 
L 434.811388 100.456952 
L 434.811388 83.580175 
L 435.212083 84.53542 
L 435.212083 90.016556 
L 435.612777 85.530305 
L 435.612777 81.273827 
L 436.013471 84.140118 
L 436.013471 85.421289 
L 436.414165 86.83075 
L 436.414165 82.50243 
L 436.81486 81.608514 
L 436.81486 84.730833 
L 437.215554 94.890644 
L 437.215554 80.902223 
L 437.616248 90.507671 
L 437.616248 79.643156 
L 438.016942 86.437367 
L 438.016942 83.588595 
L 438.417636 85.298796 
L 438.417636 82.842928 
L 438.818331 79.01904 
L 438.818331 90.925682 
L 439.219025 84.520816 
L 439.219025 85.949913 
L 439.619719 86.620863 
L 439.619719 94.417983 
L 440.020413 79.213359 
L 440.421107 85.922417 
L 440.421107 90.397769 
L 440.821802 85.014279 
L 441.222496 85.061094 
L 441.222496 81.341061 
L 441.62319 91.946506 
L 441.62319 84.16806 
L 442.023884 89.1985 
L 442.023884 82.02445 
L 442.424579 85.383909 
L 442.424579 93.662767 
L 442.825273 84.22631 
L 443.225967 90.492233 
L 443.225967 85.410915 
L 443.626661 87.25901 
L 443.626661 81.851799 
L 444.027355 83.931667 
L 444.027355 91.755034 
L 444.42805 88.945657 
L 444.42805 86.666883 
L 444.828744 89.86046 
L 444.828744 87.144378 
L 444.828744 87.575471 
L 445.229438 97.232804 
L 445.229438 92.356655 
L 445.630132 86.423099 
L 445.630132 88.555311 
L 446.030826 88.787541 
L 446.030826 89.44971 
L 446.431521 95.367068 
L 446.431521 79.973667 
L 446.832215 82.779649 
L 446.832215 82.314883 
L 447.232909 90.774159 
L 447.232909 77.996711 
L 447.633603 91.77389 
L 447.633603 90.565737 
L 448.034298 86.71252 
L 448.034298 82.559034 
L 448.434992 82.373388 
L 448.434992 84.287869 
L 448.835686 81.688306 
L 448.835686 83.216116 
L 449.23638 81.988478 
L 449.23638 83.150315 
L 449.637074 90.624095 
L 449.637074 84.08843 
L 450.037769 91.92691 
L 450.037769 80.618674 
L 450.438463 84.562432 
L 450.839157 83.641798 
L 450.839157 90.656261 
L 451.239851 81.503372 
L 451.239851 83.488527 
L 451.640545 84.987912 
L 451.640545 92.695997 
L 452.04124 83.898602 
L 452.04124 86.396746 
L 452.441934 93.163056 
L 452.441934 92.734228 
L 452.842628 82.621987 
L 452.842628 91.368674 
L 453.243322 86.636578 
L 453.243322 81.198583 
L 454.044711 92.383264 
L 454.044711 87.266204 
L 454.445405 83.417683 
L 454.445405 84.829702 
L 454.846099 88.692809 
L 454.846099 92.923353 
L 455.246793 90.07677 
L 455.246793 88.637855 
L 455.647488 83.783173 
L 455.647488 87.147599 
L 456.048182 82.462104 
L 456.048182 87.870393 
L 456.448876 88.609399 
L 456.448876 88.239614 
L 456.84957 79.690754 
L 456.84957 88.66056 
L 457.250264 87.720453 
L 457.250264 82.659182 
L 457.650959 92.628667 
L 457.650959 89.974759 
L 458.051653 89.108965 
L 458.051653 88.07058 
L 458.452347 89.16081 
L 458.452347 78.989215 
L 458.853041 89.233 
L 458.853041 84.986229 
L 459.253736 85.758233 
L 459.253736 91.571661 
L 459.65443 89.764111 
L 459.65443 81.186128 
L 460.055124 79.909508 
L 460.055124 93.623782 
L 460.455818 88.173451 
L 460.455818 86.396933 
L 460.856512 90.049367 
L 460.856512 87.735234 
L 461.257207 87.139948 
L 461.257207 88.757133 
L 461.657901 87.944639 
L 461.657901 90.515728 
L 462.058595 81.55414 
L 462.058595 81.585597 
L 462.459289 89.635522 
L 462.459289 81.272864 
L 462.859983 82.928153 
L 462.859983 79.670256 
L 463.260678 84.775474 
L 463.260678 80.489171 
L 463.661372 80.008963 
L 463.661372 88.170654 
L 464.062066 82.947271 
L 464.062066 90.40203 
L 464.46276 81.612175 
L 464.46276 84.666212 
L 464.863455 92.33322 
L 464.863455 87.82484 
L 465.264149 89.82026 
L 465.264149 87.12626 
L 465.664843 88.539946 
L 465.664843 82.519092 
L 465.664843 88.160588 
L 466.065537 92.127058 
L 466.065537 87.430347 
L 466.466231 85.430205 
L 466.466231 79.87788 
L 466.866926 84.743921 
L 466.866926 87.661472 
L 467.26762 84.912012 
L 467.26762 83.502703 
L 467.668314 89.990436 
L 467.668314 81.73985 
L 468.069008 86.889921 
L 468.069008 74.490742 
L 468.469702 78.345523 
L 468.469702 89.773634 
L 468.870397 89.566223 
L 468.870397 86.359092 
L 469.271091 89.268358 
L 469.271091 82.099473 
L 469.671785 84.479185 
L 469.671785 85.987689 
L 470.072479 83.652075 
L 470.072479 87.567634 
L 470.473174 86.064578 
L 470.473174 86.683851 
L 470.873868 82.372713 
L 470.873868 88.925997 
L 471.274562 91.044892 
L 471.274562 82.502151 
L 471.675256 82.580821 
L 471.675256 93.093274 
L 472.07595 91.367351 
L 472.07595 86.308282 
L 472.476645 76.498484 
L 472.476645 83.155633 
L 472.877339 84.825019 
L 472.877339 83.866166 
L 473.278033 85.403165 
L 473.278033 83.846424 
L 473.678727 87.242285 
L 473.678727 87.134851 
L 474.079421 82.81798 
L 474.079421 85.781016 
L 474.480116 84.9359 
L 474.480116 85.155318 
L 474.88081 91.61438 
L 474.88081 89.708688 
L 475.682198 78.947059 
L 475.682198 83.281179 
L 476.082893 79.790544 
L 476.082893 83.277014 
L 476.483587 84.28083 
L 476.483587 82.676974 
L 476.884281 87.743435 
L 476.884281 81.546301 
L 477.284975 94.443181 
L 477.685669 76.715056 
L 477.685669 87.736789 
L 478.086364 87.279761 
L 478.086364 87.345838 
L 478.487058 89.367019 
L 478.487058 93.384118 
L 478.887752 87.720162 
L 478.887752 89.610519 
L 479.288446 92.9754 
L 479.288446 85.961193 
L 479.68914 82.093373 
L 479.68914 85.110504 
L 480.089835 87.131649 
L 480.089835 86.106516 
L 480.490529 84.095621 
L 480.490529 83.38218 
L 480.891223 84.477423 
L 480.891223 91.90467 
L 481.291917 84.875664 
L 481.291917 88.730281 
L 481.692612 83.803086 
L 481.692612 84.730362 
L 482.093306 83.659827 
L 482.093306 92.07389 
L 482.494 77.767749 
L 482.494 90.847641 
L 482.894694 85.95609 
L 482.894694 82.755227 
L 483.295388 83.567906 
L 483.295388 86.074979 
L 483.696083 87.285854 
L 483.696083 79.504487 
L 484.096777 80.612997 
L 484.096777 84.556173 
L 484.497471 93.231504 
L 484.898165 86.539865 
L 484.898165 90.142104 
L 485.29886 83.73766 
L 485.29886 89.49289 
L 485.699554 81.755086 
L 485.699554 85.741112 
L 486.100248 85.597875 
L 486.100248 87.743133 
L 486.500942 87.13684 
L 486.500942 80.957609 
L 486.901636 90.366837 
L 486.901636 90.366837 
" style="fill:none;stroke:#1f77b4;stroke-linecap:square;stroke-width:1.5;"/>
   </g>
   <g id="line2d_13">
    <path clip-path="url(#p856e787e43)" d="M 90.214364 83.224919 
L 486.901636 83.224919 
L 486.901636 83.224919 
" style="fill:none;stroke:#ff0000;stroke-dasharray:7.4,3.2;stroke-dashoffset:0;stroke-width:2;"/>
   </g>
   <g id="patch_3">
    <path d="M 70.38 394.7328 
L 70.38 53.2224 
" style="fill:none;stroke:#000000;stroke-linecap:square;stroke-linejoin:miter;stroke-width:0.8;"/>
   </g>
   <g id="patch_4">
    <path d="M 506.736 394.7328 
L 506.736 53.2224 
" style="fill:none;stroke:#000000;stroke-linecap:square;stroke-linejoin:miter;stroke-width:0.8;"/>
   </g>
   <g id="patch_5">
    <path d="M 70.38 394.7328 
L 506.736 394.7328 
" style="fill:none;stroke:#000000;stroke-linecap:square;stroke-linejoin:miter;stroke-width:0.8;"/>
   </g>
   <g id="patch_6">
    <path d="M 70.38 53.2224 
L 506.736 53.2224 
" style="fill:none;stroke:#000000;stroke-linecap:square;stroke-linejoin:miter;stroke-width:0.8;"/>
   </g>
   <g id="legend_1">
    <g id="patch_7">
     <path d="M 399.136 389.7328 
L 499.736 389.7328 
Q 501.736 389.7328 501.736 387.7328 
L 501.736 359.37655 
Q 501.736 357.37655 499.736 357.37655 
L 399.136 357.37655 
Q 397.136 357.37655 397.136 359.37655 
L 397.136 387.7328 
Q 397.136 389.7328 399.136 389.7328 
z
" style="fill:#ffffff;opacity:0.8;stroke:#cccccc;stroke-linejoin:miter;"/>
    </g>
    <g id="line2d_14">
     <path d="M 401.136 365.474987 
L 421.136 365.474987 
" style="fill:none;stroke:#1f77b4;stroke-linecap:square;stroke-width:1.5;"/>
    </g>
    <g id="line2d_15"/>
    <g id="text_14">
     <!-- biased $\sigma^2$ -->
     <defs>
      <path d="M 48.6875 27.296875 
Q 48.6875 37.203125 44.609375 42.84375 
Q 40.53125 48.484375 33.40625 48.484375 
Q 26.265625 48.484375 22.1875 42.84375 
Q 18.109375 37.203125 18.109375 27.296875 
Q 18.109375 17.390625 22.1875 11.75 
Q 26.265625 6.109375 33.40625 6.109375 
Q 40.53125 6.109375 44.609375 11.75 
Q 48.6875 17.390625 48.6875 27.296875 
z
M 18.109375 46.390625 
Q 20.953125 51.265625 25.265625 53.625 
Q 29.59375 56 35.59375 56 
Q 45.5625 56 51.78125 48.09375 
Q 58.015625 40.1875 58.015625 27.296875 
Q 58.015625 14.40625 51.78125 6.484375 
Q 45.5625 -1.421875 35.59375 -1.421875 
Q 29.59375 -1.421875 25.265625 0.953125 
Q 20.953125 3.328125 18.109375 8.203125 
L 18.109375 0 
L 9.078125 0 
L 9.078125 75.984375 
L 18.109375 75.984375 
z
" id="DejaVuSans-98"/>
      <path d="M 45.40625 46.390625 
L 45.40625 75.984375 
L 54.390625 75.984375 
L 54.390625 0 
L 45.40625 0 
L 45.40625 8.203125 
Q 42.578125 3.328125 38.25 0.953125 
Q 33.9375 -1.421875 27.875 -1.421875 
Q 17.96875 -1.421875 11.734375 6.484375 
Q 5.515625 14.40625 5.515625 27.296875 
Q 5.515625 40.1875 11.734375 48.09375 
Q 17.96875 56 27.875 56 
Q 33.9375 56 38.25 53.625 
Q 42.578125 51.265625 45.40625 46.390625 
z
M 14.796875 27.296875 
Q 14.796875 17.390625 18.875 11.75 
Q 22.953125 6.109375 30.078125 6.109375 
Q 37.203125 6.109375 41.296875 11.75 
Q 45.40625 17.390625 45.40625 27.296875 
Q 45.40625 37.203125 41.296875 42.84375 
Q 37.203125 48.484375 30.078125 48.484375 
Q 22.953125 48.484375 18.875 42.84375 
Q 14.796875 37.203125 14.796875 27.296875 
z
" id="DejaVuSans-100"/>
     </defs>
     <g transform="translate(429.136 368.974987)scale(0.1 -0.1)">
      <use transform="translate(0 0.765625)" xlink:href="#DejaVuSans-98"/>
      <use transform="translate(63.476562 0.765625)" xlink:href="#DejaVuSans-105"/>
      <use transform="translate(91.259766 0.765625)" xlink:href="#DejaVuSans-97"/>
      <use transform="translate(152.539062 0.765625)" xlink:href="#DejaVuSans-115"/>
      <use transform="translate(204.638672 0.765625)" xlink:href="#DejaVuSans-101"/>
      <use transform="translate(266.162109 0.765625)" xlink:href="#DejaVuSans-100"/>
      <use transform="translate(329.638672 0.765625)" xlink:href="#DejaVuSans-32"/>
      <use transform="translate(361.425781 0.765625)" xlink:href="#DejaVuSans-Oblique-963"/>
      <use transform="translate(429.277396 39.046875)scale(0.7)" xlink:href="#DejaVuSans-50"/>
     </g>
    </g>
    <g id="line2d_16">
     <path d="M 401.136 380.153113 
L 421.136 380.153113 
" style="fill:none;stroke:#ff0000;stroke-dasharray:7.4,3.2;stroke-dashoffset:0;stroke-width:2;"/>
    </g>
    <g id="line2d_17"/>
    <g id="text_15">
     <!-- theoretical $\sigma^2$ -->
     <defs>
      <path d="M 18.3125 70.21875 
L 18.3125 54.6875 
L 36.8125 54.6875 
L 36.8125 47.703125 
L 18.3125 47.703125 
L 18.3125 18.015625 
Q 18.3125 11.328125 20.140625 9.421875 
Q 21.96875 7.515625 27.59375 7.515625 
L 36.8125 7.515625 
L 36.8125 0 
L 27.59375 0 
Q 17.1875 0 13.234375 3.875 
Q 9.28125 7.765625 9.28125 18.015625 
L 9.28125 47.703125 
L 2.6875 47.703125 
L 2.6875 54.6875 
L 9.28125 54.6875 
L 9.28125 70.21875 
z
" id="DejaVuSans-116"/>
      <path d="M 54.890625 33.015625 
L 54.890625 0 
L 45.90625 0 
L 45.90625 32.71875 
Q 45.90625 40.484375 42.875 44.328125 
Q 39.84375 48.1875 33.796875 48.1875 
Q 26.515625 48.1875 22.3125 43.546875 
Q 18.109375 38.921875 18.109375 30.90625 
L 18.109375 0 
L 9.078125 0 
L 9.078125 75.984375 
L 18.109375 75.984375 
L 18.109375 46.1875 
Q 21.34375 51.125 25.703125 53.5625 
Q 30.078125 56 35.796875 56 
Q 45.21875 56 50.046875 50.171875 
Q 54.890625 44.34375 54.890625 33.015625 
z
" id="DejaVuSans-104"/>
      <path d="M 30.609375 48.390625 
Q 23.390625 48.390625 19.1875 42.75 
Q 14.984375 37.109375 14.984375 27.296875 
Q 14.984375 17.484375 19.15625 11.84375 
Q 23.34375 6.203125 30.609375 6.203125 
Q 37.796875 6.203125 41.984375 11.859375 
Q 46.1875 17.53125 46.1875 27.296875 
Q 46.1875 37.015625 41.984375 42.703125 
Q 37.796875 48.390625 30.609375 48.390625 
z
M 30.609375 56 
Q 42.328125 56 49.015625 48.375 
Q 55.71875 40.765625 55.71875 27.296875 
Q 55.71875 13.875 49.015625 6.21875 
Q 42.328125 -1.421875 30.609375 -1.421875 
Q 18.84375 -1.421875 12.171875 6.21875 
Q 5.515625 13.875 5.515625 27.296875 
Q 5.515625 40.765625 12.171875 48.375 
Q 18.84375 56 30.609375 56 
z
" id="DejaVuSans-111"/>
      <path d="M 41.109375 46.296875 
Q 39.59375 47.171875 37.8125 47.578125 
Q 36.03125 48 33.890625 48 
Q 26.265625 48 22.1875 43.046875 
Q 18.109375 38.09375 18.109375 28.8125 
L 18.109375 0 
L 9.078125 0 
L 9.078125 54.6875 
L 18.109375 54.6875 
L 18.109375 46.1875 
Q 20.953125 51.171875 25.484375 53.578125 
Q 30.03125 56 36.53125 56 
Q 37.453125 56 38.578125 55.875 
Q 39.703125 55.765625 41.0625 55.515625 
z
" id="DejaVuSans-114"/>
      <path d="M 48.78125 52.59375 
L 48.78125 44.1875 
Q 44.96875 46.296875 41.140625 47.34375 
Q 37.3125 48.390625 33.40625 48.390625 
Q 24.65625 48.390625 19.8125 42.84375 
Q 14.984375 37.3125 14.984375 27.296875 
Q 14.984375 17.28125 19.8125 11.734375 
Q 24.65625 6.203125 33.40625 6.203125 
Q 37.3125 6.203125 41.140625 7.25 
Q 44.96875 8.296875 48.78125 10.40625 
L 48.78125 2.09375 
Q 45.015625 0.34375 40.984375 -0.53125 
Q 36.96875 -1.421875 32.421875 -1.421875 
Q 20.0625 -1.421875 12.78125 6.34375 
Q 5.515625 14.109375 5.515625 27.296875 
Q 5.515625 40.671875 12.859375 48.328125 
Q 20.21875 56 33.015625 56 
Q 37.15625 56 41.109375 55.140625 
Q 45.0625 54.296875 48.78125 52.59375 
z
" id="DejaVuSans-99"/>
     </defs>
     <g transform="translate(429.136 383.653113)scale(0.1 -0.1)">
      <use transform="translate(0 0.765625)" xlink:href="#DejaVuSans-116"/>
      <use transform="translate(39.208984 0.765625)" xlink:href="#DejaVuSans-104"/>
      <use transform="translate(102.587891 0.765625)" xlink:href="#DejaVuSans-101"/>
      <use transform="translate(164.111328 0.765625)" xlink:href="#DejaVuSans-111"/>
      <use transform="translate(225.292969 0.765625)" xlink:href="#DejaVuSans-114"/>
      <use transform="translate(266.40625 0.765625)" xlink:href="#DejaVuSans-101"/>
      <use transform="translate(327.929688 0.765625)" xlink:href="#DejaVuSans-116"/>
      <use transform="translate(367.138672 0.765625)" xlink:href="#DejaVuSans-105"/>
      <use transform="translate(394.921875 0.765625)" xlink:href="#DejaVuSans-99"/>
      <use transform="translate(449.902344 0.765625)" xlink:href="#DejaVuSans-97"/>
      <use transform="translate(511.181641 0.765625)" xlink:href="#DejaVuSans-108"/>
      <use transform="translate(538.964844 0.765625)" xlink:href="#DejaVuSans-32"/>
      <use transform="translate(570.751953 0.765625)" xlink:href="#DejaVuSans-Oblique-963"/>
      <use transform="translate(638.603568 39.046875)scale(0.7)" xlink:href="#DejaVuSans-50"/>
     </g>
    </g>
   </g>
  </g>
 </g>
 <defs>
  <clipPath id="p856e787e43">
   <rect height="341.5104" width="436.356" x="70.38" y="53.2224"/>
  </clipPath>
 </defs>
</svg>
